<?xml version="1.0" encoding="UTF-8"?>
<svg xmlns="http://www.w3.org/2000/svg" xmlns:xlink="http://www.w3.org/1999/xlink" width="512px" height="512px" viewBox="0 0 512 512" version="1.1">
<g id="surface1">
<path style=" stroke:none;fill-rule:nonzero;fill:rgb(93.333334%,93.333334%,93.333334%);fill-opacity:1;" d="M 145.441406 214.847656 L 131.519531 256 L 96 256 L 155.585938 96 L 196.671875 96 L 256 256 L 218.65625 256 L 204.734375 214.847656 Z M 197.726562 191.296875 L 176 126.59375 L 174.433594 126.59375 L 152.703125 191.296875 L 197.761719 191.296875 Z M 197.726562 191.296875 "/>
<path style=" stroke:none;fill-rule:nonzero;fill:rgb(93.333334%,93.333334%,93.333334%);fill-opacity:1;" d="M 0 64 C 0 28.652344 28.652344 0 64 0 L 288 0 C 323.347656 0 352 28.652344 352 64 L 352 160 L 448 160 C 483.347656 160 512 188.652344 512 224 L 512 448 C 512 483.347656 483.347656 512 448 512 L 224 512 C 188.652344 512 160 483.347656 160 448 L 160 352 L 64 352 C 28.652344 352 0 323.347656 0 288 Z M 64 32 C 46.328125 32 32 46.328125 32 64 L 32 288 C 32 305.671875 46.328125 320 64 320 L 288 320 C 305.671875 320 320 305.671875 320 288 L 320 64 C 320 46.328125 305.671875 32 288 32 Z M 292.414062 351.839844 C 298.59375 361.472656 305.28125 370.496094 312.574219 378.910156 C 288.640625 397.3125 259.039062 410.945312 224 420.257812 C 229.695312 427.199219 238.433594 440.574219 241.761719 448 C 277.761719 436.511719 308.320312 420.992188 334.113281 400.191406 C 358.976562 421.472656 389.761719 437.472656 427.871094 447.296875 C 432.128906 439.167969 441.121094 425.761719 448 418.816406 C 412 410.71875 382.175781 396.609375 357.761719 377.726562 C 379.550781 353.824219 396.863281 324.894531 409.632812 289.503906 L 448 289.503906 L 448 256 L 352 256 L 352 289.503906 L 376.480469 289.503906 C 366.304688 316.511719 352.800781 338.976562 335.777344 357.664062 C 331.074219 352.65625 326.640625 347.398438 322.496094 341.921875 C 313.464844 347.710938 303.117188 351.121094 292.414062 351.839844 Z M 292.414062 351.839844 "/>
</g>
</svg>
